<svg xmlns="http://www.w3.org/2000/svg" xmlns:xlink="http://www.w3.org/1999/xlink" width="500" zoomAndPan="magnify" viewBox="0 0 375 374.999991" height="500" preserveAspectRatio="xMidYMid meet" version="1.0"><defs><clipPath id="b34457c230"><path d="M 3 187.5 L 222 187.5 L 222 366 L 3 366 Z M 3 187.5 " clip-rule="nonzero"/></clipPath><clipPath id="350c2f53a2"><path d="M 147 2 L 352 2 L 352 185 L 147 185 Z M 147 2 " clip-rule="nonzero"/></clipPath><clipPath id="20c8d0e540"><path d="M 364.628906 167.707031 L 142.007812 187.519531 L 124.921875 -4.472656 L 347.542969 -24.28125 Z M 364.628906 167.707031 " clip-rule="nonzero"/></clipPath><clipPath id="05218d00f2"><path d="M 364.628906 167.707031 L 142.007812 187.519531 L 124.921875 -4.472656 L 347.542969 -24.28125 Z M 364.628906 167.707031 " clip-rule="nonzero"/></clipPath><clipPath id="bd7d0b6a8c"><path d="M 6 10 L 176 10 L 176 223 L 6 223 Z M 6 10 " clip-rule="nonzero"/></clipPath><clipPath id="5d704d167d"><path d="M 180.582031 9.808594 L 175.363281 233.246094 L -17.332031 228.75 L -12.117188 5.308594 Z M 180.582031 9.808594 " clip-rule="nonzero"/></clipPath><clipPath id="001cca0b86"><path d="M 180.582031 9.808594 L 175.363281 233.246094 L -17.332031 228.75 L -12.117188 5.308594 Z M 180.582031 9.808594 " clip-rule="nonzero"/></clipPath><clipPath id="59dadff74c"><path d="M 202 141 L 373 141 L 373 354 L 202 354 Z M 202 141 " clip-rule="nonzero"/></clipPath><clipPath id="42664bb9e4"><path d="M 198.417969 354.9375 L 202.367188 131.472656 L 395.085938 134.878906 L 391.136719 358.34375 Z M 198.417969 354.9375 " clip-rule="nonzero"/></clipPath><clipPath id="41f5d130d3"><path d="M 198.417969 354.9375 L 202.367188 131.472656 L 395.085938 134.878906 L 391.136719 358.34375 Z M 198.417969 354.9375 " clip-rule="nonzero"/></clipPath></defs><g clip-path="url(#b34457c230)"><path fill="#5e17eb" d="M 201.34375 187.886719 C 168.710938 188.273438 182.8125 248.789062 121.25 263.003906 C 77.71875 273.015625 41.707031 249.949219 17.09375 267.539062 C 3.707031 277.109375 0 304.214844 7.246094 324.457031 C 29.425781 386.742188 165.28125 380.769531 208.425781 292.652344 C 221.921875 265.050781 230.882812 187.5 201.34375 187.886719 Z M 201.34375 187.886719 " fill-opacity="1" fill-rule="evenodd"/></g><g clip-path="url(#350c2f53a2)"><g clip-path="url(#20c8d0e540)"><g clip-path="url(#05218d00f2)"><path fill="#5e17eb" d="M 170.710938 184.589844 C 202.105469 181.417969 183.335938 124.355469 241.402344 105.390625 C 282.464844 92.019531 319.113281 111.144531 341.3125 92.097656 C 353.378906 81.734375 354.628906 55.316406 345.914062 36.445312 C 319.21875 -21.632812 188.910156 -4.238281 154.914062 84.3125 C 144.285156 112.046875 142.300781 187.492188 170.710938 184.589844 Z M 170.710938 184.589844 " fill-opacity="1" fill-rule="evenodd"/></g></g></g><g clip-path="url(#bd7d0b6a8c)"><g clip-path="url(#5d704d167d)"><g clip-path="url(#001cca0b86)"><path fill="#5e17eb" d="M 175.664062 204.398438 C 176.023438 172.847656 117.21875 185.113281 104.871094 125.292969 C 96.175781 82.992188 119.28125 48.710938 102.835938 24.523438 C 93.890625 11.367188 67.777344 7.175781 48.046875 13.722656 C -12.652344 33.753906 -9.941406 165.191406 74.246094 208.878906 C 100.621094 222.542969 175.371094 232.953125 175.664062 204.398438 Z M 175.664062 204.398438 " fill-opacity="1" fill-rule="evenodd"/></g></g></g><g clip-path="url(#59dadff74c)"><g clip-path="url(#42664bb9e4)"><g clip-path="url(#41f5d130d3)"><path fill="#5e17eb" d="M 202.230469 160.324219 C 202.046875 191.875 260.78125 179.277344 273.472656 239.027344 C 282.40625 281.277344 259.496094 315.691406 276.078125 339.785156 C 285.097656 352.886719 311.234375 356.933594 330.925781 350.273438 C 391.507812 329.898438 388.054688 198.480469 303.621094 155.269531 C 277.171875 141.753906 202.363281 131.765625 202.230469 160.324219 Z M 202.230469 160.324219 " fill-opacity="1" fill-rule="evenodd"/></g></g></g></svg>